<svg aria-hidden="true" style="position: absolute; width: 0; height: 0; overflow: hidden;" version="1.1" xmlns="http://www.w3.org/2000/svg" xmlns:xlink="http://www.w3.org/1999/xlink">
<defs>
<symbol id="icon-search" viewBox="0 0 26 28">
<title>search</title>
<path d="M18 13c0-3.859-3.141-7-7-7s-7 3.141-7 7 3.141 7 7 7 7-3.141 7-7zM26 26c0 1.094-0.906 2-2 2-0.531 0-1.047-0.219-1.406-0.594l-5.359-5.344c-1.828 1.266-4.016 1.937-6.234 1.937-6.078 0-11-4.922-11-11s4.922-11 11-11 11 4.922 11 11c0 2.219-0.672 4.406-1.937 6.234l5.359 5.359c0.359 0.359 0.578 0.875 0.578 1.406z"></path>
</symbol>
<symbol id="icon-heart" viewBox="0 0 28 28">
<title>heart</title>
<path d="M14 26c-0.25 0-0.5-0.094-0.688-0.281l-9.75-9.406c-0.125-0.109-3.563-3.25-3.563-7 0-4.578 2.797-7.313 7.469-7.313 2.734 0 5.297 2.156 6.531 3.375 1.234-1.219 3.797-3.375 6.531-3.375 4.672 0 7.469 2.734 7.469 7.313 0 3.75-3.437 6.891-3.578 7.031l-9.734 9.375c-0.187 0.187-0.438 0.281-0.688 0.281z"></path>
</symbol>
<symbol id="icon-user" viewBox="0 0 20 28">
<title>user</title>
<path d="M20 21.859c0 2.281-1.5 4.141-3.328 4.141h-13.344c-1.828 0-3.328-1.859-3.328-4.141 0-4.109 1.016-8.859 5.109-8.859 1.266 1.234 2.984 2 4.891 2s3.625-0.766 4.891-2c4.094 0 5.109 4.75 5.109 8.859zM16 8c0 3.313-2.688 6-6 6s-6-2.688-6-6 2.688-6 6-6 6 2.688 6 6z"></path>
</symbol>
<symbol id="icon-check" viewBox="0 0 28 28">
<title>check</title>
<path d="M26.109 8.844c0 0.391-0.156 0.781-0.438 1.062l-13.438 13.438c-0.281 0.281-0.672 0.438-1.062 0.438s-0.781-0.156-1.062-0.438l-7.781-7.781c-0.281-0.281-0.438-0.672-0.438-1.062s0.156-0.781 0.438-1.062l2.125-2.125c0.281-0.281 0.672-0.438 1.062-0.438s0.781 0.156 1.062 0.438l4.594 4.609 10.25-10.266c0.281-0.281 0.672-0.438 1.062-0.438s0.781 0.156 1.062 0.438l2.125 2.125c0.281 0.281 0.438 0.672 0.438 1.062z"></path>
</symbol>
<symbol id="icon-cog" viewBox="0 0 24 28">
<title>cog</title>
<path d="M16 14c0-2.203-1.797-4-4-4s-4 1.797-4 4 1.797 4 4 4 4-1.797 4-4zM24 12.297v3.469c0 0.234-0.187 0.516-0.438 0.562l-2.891 0.438c-0.172 0.5-0.359 0.969-0.609 1.422 0.531 0.766 1.094 1.453 1.672 2.156 0.094 0.109 0.156 0.25 0.156 0.391s-0.047 0.25-0.141 0.359c-0.375 0.5-2.484 2.797-3.016 2.797-0.141 0-0.281-0.063-0.406-0.141l-2.156-1.687c-0.453 0.234-0.938 0.438-1.422 0.594-0.109 0.953-0.203 1.969-0.453 2.906-0.063 0.25-0.281 0.438-0.562 0.438h-3.469c-0.281 0-0.531-0.203-0.562-0.469l-0.438-2.875c-0.484-0.156-0.953-0.344-1.406-0.578l-2.203 1.672c-0.109 0.094-0.25 0.141-0.391 0.141s-0.281-0.063-0.391-0.172c-0.828-0.75-1.922-1.719-2.578-2.625-0.078-0.109-0.109-0.234-0.109-0.359 0-0.141 0.047-0.25 0.125-0.359 0.531-0.719 1.109-1.406 1.641-2.141-0.266-0.5-0.484-1.016-0.641-1.547l-2.859-0.422c-0.266-0.047-0.453-0.297-0.453-0.562v-3.469c0-0.234 0.187-0.516 0.422-0.562l2.906-0.438c0.156-0.5 0.359-0.969 0.609-1.437-0.531-0.75-1.094-1.453-1.672-2.156-0.094-0.109-0.156-0.234-0.156-0.375s0.063-0.25 0.141-0.359c0.375-0.516 2.484-2.797 3.016-2.797 0.141 0 0.281 0.063 0.406 0.156l2.156 1.672c0.453-0.234 0.938-0.438 1.422-0.594 0.109-0.953 0.203-1.969 0.453-2.906 0.063-0.25 0.281-0.438 0.562-0.438h3.469c0.281 0 0.531 0.203 0.562 0.469l0.438 2.875c0.484 0.156 0.953 0.344 1.406 0.578l2.219-1.672c0.094-0.094 0.234-0.141 0.375-0.141s0.281 0.063 0.391 0.156c0.828 0.766 1.922 1.734 2.578 2.656 0.078 0.094 0.109 0.219 0.109 0.344 0 0.141-0.047 0.25-0.125 0.359-0.531 0.719-1.109 1.406-1.641 2.141 0.266 0.5 0.484 1.016 0.641 1.531l2.859 0.438c0.266 0.047 0.453 0.297 0.453 0.562z"></path>
</symbol>
<symbol id="icon-clock-o" viewBox="0 0 24 28">
<title>clock-o</title>
<path d="M14 8.5v7c0 0.281-0.219 0.5-0.5 0.5h-5c-0.281 0-0.5-0.219-0.5-0.5v-1c0-0.281 0.219-0.5 0.5-0.5h3.5v-5.5c0-0.281 0.219-0.5 0.5-0.5h1c0.281 0 0.5 0.219 0.5 0.5zM20.5 14c0-4.688-3.813-8.5-8.5-8.5s-8.5 3.813-8.5 8.5 3.813 8.5 8.5 8.5 8.5-3.813 8.5-8.5zM24 14c0 6.625-5.375 12-12 12s-12-5.375-12-12 5.375-12 12-12 12 5.375 12 12z"></path>
</symbol>
<symbol id="icon-lock" viewBox="0 0 18 28">
<title>lock</title>
<path d="M5 12h8v-3c0-2.203-1.797-4-4-4s-4 1.797-4 4v3zM18 13.5v9c0 0.828-0.672 1.5-1.5 1.5h-15c-0.828 0-1.5-0.672-1.5-1.5v-9c0-0.828 0.672-1.5 1.5-1.5h0.5v-3c0-3.844 3.156-7 7-7s7 3.156 7 7v3h0.5c0.828 0 1.5 0.672 1.5 1.5z"></path>
</symbol>
<symbol id="icon-bookmark" viewBox="0 0 20 28">
<title>bookmark</title>
<path d="M18.188 2c0.234 0 0.469 0.047 0.688 0.141 0.688 0.266 1.125 0.906 1.125 1.609v20.141c0 0.703-0.438 1.344-1.125 1.609-0.219 0.094-0.453 0.125-0.688 0.125-0.484 0-0.938-0.172-1.297-0.5l-6.891-6.625-6.891 6.625c-0.359 0.328-0.812 0.516-1.297 0.516-0.234 0-0.469-0.047-0.688-0.141-0.688-0.266-1.125-0.906-1.125-1.609v-20.141c0-0.703 0.438-1.344 1.125-1.609 0.219-0.094 0.453-0.141 0.688-0.141h16.375z"></path>
</symbol>
<symbol id="icon-camera" viewBox="0 0 30 28">
<title>camera</title>
<path d="M15 10.5c2.484 0 4.5 2.016 4.5 4.5s-2.016 4.5-4.5 4.5-4.5-2.016-4.5-4.5 2.016-4.5 4.5-4.5zM26 4c2.203 0 4 1.797 4 4v14c0 2.203-1.797 4-4 4h-22c-2.203 0-4-1.797-4-4v-14c0-2.203 1.797-4 4-4h3.5l0.797-2.125c0.391-1.031 1.609-1.875 2.703-1.875h8c1.094 0 2.312 0.844 2.703 1.875l0.797 2.125h3.5zM15 22c3.859 0 7-3.141 7-7s-3.141-7-7-7-7 3.141-7 7 3.141 7 7 7z"></path>
</symbol>
<symbol id="icon-pencil" viewBox="0 0 24 28">
<title>pencil</title>
<path d="M5.672 24l1.422-1.422-3.672-3.672-1.422 1.422v1.672h2v2h1.672zM13.844 9.5c0-0.203-0.141-0.344-0.344-0.344-0.094 0-0.187 0.031-0.266 0.109l-8.469 8.469c-0.078 0.078-0.109 0.172-0.109 0.266 0 0.203 0.141 0.344 0.344 0.344 0.094 0 0.187-0.031 0.266-0.109l8.469-8.469c0.078-0.078 0.109-0.172 0.109-0.266zM13 6.5l6.5 6.5-13 13h-6.5v-6.5zM23.672 8c0 0.531-0.219 1.047-0.578 1.406l-2.594 2.594-6.5-6.5 2.594-2.578c0.359-0.375 0.875-0.594 1.406-0.594s1.047 0.219 1.422 0.594l3.672 3.656c0.359 0.375 0.578 0.891 0.578 1.422z"></path>
</symbol>
<symbol id="icon-chevron-left" viewBox="0 0 21 28">
<title>chevron-left</title>
<path d="M18.297 4.703l-8.297 8.297 8.297 8.297c0.391 0.391 0.391 1.016 0 1.406l-2.594 2.594c-0.391 0.391-1.016 0.391-1.406 0l-11.594-11.594c-0.391-0.391-0.391-1.016 0-1.406l11.594-11.594c0.391-0.391 1.016-0.391 1.406 0l2.594 2.594c0.391 0.391 0.391 1.016 0 1.406z"></path>
</symbol>
<symbol id="icon-chevron-right" viewBox="0 0 19 28">
<title>chevron-right</title>
<path d="M17.297 13.703l-11.594 11.594c-0.391 0.391-1.016 0.391-1.406 0l-2.594-2.594c-0.391-0.391-0.391-1.016 0-1.406l8.297-8.297-8.297-8.297c-0.391-0.391-0.391-1.016 0-1.406l2.594-2.594c0.391-0.391 1.016-0.391 1.406 0l11.594 11.594c0.391 0.391 0.391 1.016 0 1.406z"></path>
</symbol>
<symbol id="icon-comments" viewBox="0 0 28 28">
<title>comments</title>
<path d="M22 12c0 4.422-4.922 8-11 8-0.953 0-1.875-0.094-2.75-0.25-1.297 0.922-2.766 1.594-4.344 2-0.422 0.109-0.875 0.187-1.344 0.25h-0.047c-0.234 0-0.453-0.187-0.5-0.453v0c-0.063-0.297 0.141-0.484 0.313-0.688 0.609-0.688 1.297-1.297 1.828-2.594-2.531-1.469-4.156-3.734-4.156-6.266 0-4.422 4.922-8 11-8s11 3.578 11 8zM28 16c0 2.547-1.625 4.797-4.156 6.266 0.531 1.297 1.219 1.906 1.828 2.594 0.172 0.203 0.375 0.391 0.313 0.688v0c-0.063 0.281-0.297 0.484-0.547 0.453-0.469-0.063-0.922-0.141-1.344-0.25-1.578-0.406-3.047-1.078-4.344-2-0.875 0.156-1.797 0.25-2.75 0.25-2.828 0-5.422-0.781-7.375-2.063 0.453 0.031 0.922 0.063 1.375 0.063 3.359 0 6.531-0.969 8.953-2.719 2.609-1.906 4.047-4.484 4.047-7.281 0-0.812-0.125-1.609-0.359-2.375 2.641 1.453 4.359 3.766 4.359 6.375z"></path>
</symbol>
<symbol id="icon-sign-in" viewBox="0 0 24 28">
<title>sign-in</title>
<path d="M18.5 14c0 0.266-0.109 0.516-0.297 0.703l-8.5 8.5c-0.187 0.187-0.438 0.297-0.703 0.297-0.547 0-1-0.453-1-1v-4.5h-7c-0.547 0-1-0.453-1-1v-6c0-0.547 0.453-1 1-1h7v-4.5c0-0.547 0.453-1 1-1 0.266 0 0.516 0.109 0.703 0.297l8.5 8.5c0.187 0.187 0.297 0.438 0.297 0.703zM24 8.5v11c0 2.484-2.016 4.5-4.5 4.5h-5c-0.266 0-0.5-0.234-0.5-0.5 0-0.438-0.203-1.5 0.5-1.5h5c1.375 0 2.5-1.125 2.5-2.5v-11c0-1.375-1.125-2.5-2.5-2.5h-4.5c-0.391 0-1 0.078-1-0.5 0-0.438-0.203-1.5 0.5-1.5h5c2.484 0 4.5 2.016 4.5 4.5z"></path>
</symbol>
<symbol id="icon-github-square" viewBox="0 0 24 28">
<title>github-square</title>
<path d="M8.109 18.75v0c0.031-0.047 0.016-0.141-0.047-0.203-0.078-0.063-0.172-0.078-0.219-0.031-0.031 0.047-0.016 0.141 0.047 0.203 0.078 0.063 0.172 0.078 0.219 0.031zM7.672 18.109c-0.047-0.063-0.125-0.094-0.187-0.063-0.047 0.031-0.047 0.125 0 0.187 0.063 0.078 0.141 0.109 0.187 0.078v0c0.047-0.031 0.047-0.125 0-0.203zM7.031 17.484v0c0.016-0.031-0.016-0.094-0.078-0.125-0.047-0.016-0.109-0.016-0.125 0.031-0.031 0.047 0 0.094 0.063 0.125 0.063 0.016 0.125 0.016 0.141-0.031zM7.359 17.844v0c0.031-0.031 0.031-0.109-0.031-0.156-0.047-0.063-0.125-0.078-0.156-0.047-0.047 0.047-0.031 0.109 0.016 0.172 0.047 0.047 0.125 0.078 0.172 0.031zM8.703 19.016v0c0.016-0.063-0.047-0.141-0.141-0.172s-0.172 0-0.203 0.063c-0.016 0.063 0.047 0.141 0.141 0.172s0.172 0 0.203-0.063zM9.359 19.063v0c0-0.063-0.078-0.125-0.187-0.125-0.094 0-0.156 0.063-0.156 0.125s0.078 0.125 0.172 0.125 0.172-0.063 0.172-0.125zM9.969 18.953v0c-0.016-0.063-0.109-0.094-0.203-0.078s-0.156 0.078-0.141 0.141 0.094 0.109 0.187 0.094 0.156-0.094 0.156-0.156zM20 14c0-4.422-3.578-8-8-8s-8 3.578-8 8c0 3.531 2.297 6.531 5.469 7.594 0.406 0.078 0.547-0.172 0.547-0.391 0-0.187 0-0.812-0.016-1.484 0 0-2.219 0.484-2.688-0.953 0 0-0.359-0.922-0.891-1.156 0 0-0.719-0.5 0.063-0.5 0 0 0.781 0.063 1.219 0.828 0.703 1.234 1.875 0.875 2.328 0.672 0.078-0.516 0.281-0.875 0.516-1.078-1.781-0.203-3.656-0.891-3.656-3.953 0-0.875 0.313-1.578 0.828-2.141-0.078-0.203-0.359-1.016 0.078-2.125 0.672-0.203 2.203 0.828 2.203 0.828 0.641-0.187 1.313-0.266 2-0.266s1.359 0.078 2 0.266c0 0 1.531-1.031 2.203-0.828 0.438 1.109 0.156 1.922 0.078 2.125 0.516 0.562 0.828 1.266 0.828 2.141 0 3.078-1.875 3.75-3.656 3.953 0.281 0.25 0.547 0.734 0.547 1.484 0 1.062-0.016 1.922-0.016 2.188 0 0.219 0.141 0.469 0.547 0.391 3.172-1.062 5.469-4.062 5.469-7.594zM24 6.5v15c0 2.484-2.016 4.5-4.5 4.5h-15c-2.484 0-4.5-2.016-4.5-4.5v-15c0-2.484 2.016-4.5 4.5-4.5h15c2.484 0 4.5 2.016 4.5 4.5z"></path>
</symbol>
<symbol id="icon-phone" viewBox="0 0 22 28">
<title>phone</title>
<path d="M22 19.375c0 0.562-0.25 1.656-0.484 2.172-0.328 0.766-1.203 1.266-1.906 1.656-0.922 0.5-1.859 0.797-2.906 0.797-1.453 0-2.766-0.594-4.094-1.078-0.953-0.344-1.875-0.766-2.734-1.297-2.656-1.641-5.859-4.844-7.5-7.5-0.531-0.859-0.953-1.781-1.297-2.734-0.484-1.328-1.078-2.641-1.078-4.094 0-1.047 0.297-1.984 0.797-2.906 0.391-0.703 0.891-1.578 1.656-1.906 0.516-0.234 1.609-0.484 2.172-0.484 0.109 0 0.219 0 0.328 0.047 0.328 0.109 0.672 0.875 0.828 1.188 0.5 0.891 0.984 1.797 1.5 2.672 0.25 0.406 0.719 0.906 0.719 1.391 0 0.953-2.828 2.344-2.828 3.187 0 0.422 0.391 0.969 0.609 1.344 1.578 2.844 3.547 4.813 6.391 6.391 0.375 0.219 0.922 0.609 1.344 0.609 0.844 0 2.234-2.828 3.187-2.828 0.484 0 0.984 0.469 1.391 0.719 0.875 0.516 1.781 1 2.672 1.5 0.313 0.156 1.078 0.5 1.188 0.828 0.047 0.109 0.047 0.219 0.047 0.328z"></path>
</symbol>
<symbol id="icon-envelope" viewBox="0 0 28 28">
<title>envelope</title>
<path d="M28 11.094v12.406c0 1.375-1.125 2.5-2.5 2.5h-23c-1.375 0-2.5-1.125-2.5-2.5v-12.406c0.469 0.516 1 0.969 1.578 1.359 2.594 1.766 5.219 3.531 7.766 5.391 1.313 0.969 2.938 2.156 4.641 2.156h0.031c1.703 0 3.328-1.188 4.641-2.156 2.547-1.844 5.172-3.625 7.781-5.391 0.562-0.391 1.094-0.844 1.563-1.359zM28 6.5c0 1.75-1.297 3.328-2.672 4.281-2.438 1.687-4.891 3.375-7.313 5.078-1.016 0.703-2.734 2.141-4 2.141h-0.031c-1.266 0-2.984-1.437-4-2.141-2.422-1.703-4.875-3.391-7.297-5.078-1.109-0.75-2.688-2.516-2.688-3.938 0-1.531 0.828-2.844 2.5-2.844h23c1.359 0 2.5 1.125 2.5 2.5z"></path>
</symbol>
<symbol id="icon-plus-square" viewBox="0 0 24 28">
<title>plus-square</title>
<path d="M20 15v-2c0-0.547-0.453-1-1-1h-5v-5c0-0.547-0.453-1-1-1h-2c-0.547 0-1 0.453-1 1v5h-5c-0.547 0-1 0.453-1 1v2c0 0.547 0.453 1 1 1h5v5c0 0.547 0.453 1 1 1h2c0.547 0 1-0.453 1-1v-5h5c0.547 0 1-0.453 1-1zM24 6.5v15c0 2.484-2.016 4.5-4.5 4.5h-15c-2.484 0-4.5-2.016-4.5-4.5v-15c0-2.484 2.016-4.5 4.5-4.5h15c2.484 0 4.5 2.016 4.5 4.5z"></path>
</symbol>
<symbol id="icon-angle-double-down" viewBox="0 0 18 28">
<title>angle-double-down</title>
<path d="M16.797 13.5c0 0.125-0.063 0.266-0.156 0.359l-7.281 7.281c-0.094 0.094-0.234 0.156-0.359 0.156s-0.266-0.063-0.359-0.156l-7.281-7.281c-0.094-0.094-0.156-0.234-0.156-0.359s0.063-0.266 0.156-0.359l0.781-0.781c0.094-0.094 0.219-0.156 0.359-0.156 0.125 0 0.266 0.063 0.359 0.156l6.141 6.141 6.141-6.141c0.094-0.094 0.234-0.156 0.359-0.156s0.266 0.063 0.359 0.156l0.781 0.781c0.094 0.094 0.156 0.234 0.156 0.359zM16.797 7.5c0 0.125-0.063 0.266-0.156 0.359l-7.281 7.281c-0.094 0.094-0.234 0.156-0.359 0.156s-0.266-0.063-0.359-0.156l-7.281-7.281c-0.094-0.094-0.156-0.234-0.156-0.359s0.063-0.266 0.156-0.359l0.781-0.781c0.094-0.094 0.219-0.156 0.359-0.156 0.125 0 0.266 0.063 0.359 0.156l6.141 6.141 6.141-6.141c0.094-0.094 0.234-0.156 0.359-0.156s0.266 0.063 0.359 0.156l0.781 0.781c0.094 0.094 0.156 0.234 0.156 0.359z"></path>
</symbol>
<symbol id="icon-mobile" viewBox="0 0 12 28">
<title>mobile</title>
<path d="M7.25 22c0-0.688-0.562-1.25-1.25-1.25s-1.25 0.562-1.25 1.25 0.562 1.25 1.25 1.25 1.25-0.562 1.25-1.25zM10.5 19.5v-11c0-0.266-0.234-0.5-0.5-0.5h-8c-0.266 0-0.5 0.234-0.5 0.5v11c0 0.266 0.234 0.5 0.5 0.5h8c0.266 0 0.5-0.234 0.5-0.5zM7.5 6.25c0-0.141-0.109-0.25-0.25-0.25h-2.5c-0.141 0-0.25 0.109-0.25 0.25s0.109 0.25 0.25 0.25h2.5c0.141 0 0.25-0.109 0.25-0.25zM12 6v16c0 1.094-0.906 2-2 2h-8c-1.094 0-2-0.906-2-2v-16c0-1.094 0.906-2 2-2h8c1.094 0 2 0.906 2 2z"></path>
</symbol>
<symbol id="icon-play-circle" viewBox="0 0 24 28">
<title>play-circle</title>
<path d="M12 2c6.625 0 12 5.375 12 12s-5.375 12-12 12-12-5.375-12-12 5.375-12 12-12zM18 14.859c0.313-0.172 0.5-0.5 0.5-0.859s-0.187-0.688-0.5-0.859l-8.5-5c-0.297-0.187-0.688-0.187-1-0.016-0.313 0.187-0.5 0.516-0.5 0.875v10c0 0.359 0.187 0.688 0.5 0.875 0.156 0.078 0.328 0.125 0.5 0.125s0.344-0.047 0.5-0.141z"></path>
</symbol>
<symbol id="icon-youtube" viewBox="0 0 24 28">
<title>youtube</title>
<path d="M15.172 19.437v3.297c0 0.703-0.203 1.047-0.609 1.047-0.234 0-0.469-0.109-0.703-0.344v-4.703c0.234-0.234 0.469-0.344 0.703-0.344 0.406 0 0.609 0.359 0.609 1.047zM20.453 19.453v0.719h-1.406v-0.719c0-0.703 0.234-1.062 0.703-1.062s0.703 0.359 0.703 1.062zM5.359 16.047h1.672v-1.469h-4.875v1.469h1.641v8.891h1.563v-8.891zM9.859 24.938h1.391v-7.719h-1.391v5.906c-0.313 0.438-0.609 0.656-0.891 0.656-0.187 0-0.297-0.109-0.328-0.328-0.016-0.047-0.016-0.219-0.016-0.547v-5.688h-1.391v6.109c0 0.547 0.047 0.906 0.125 1.141 0.125 0.391 0.453 0.578 0.906 0.578 0.5 0 1.031-0.313 1.594-0.953v0.844zM16.562 22.625v-3.078c0-0.719-0.031-1.234-0.141-1.547-0.172-0.578-0.562-0.875-1.109-0.875-0.516 0-1 0.281-1.453 0.844v-3.391h-1.391v10.359h1.391v-0.75c0.469 0.578 0.953 0.859 1.453 0.859 0.547 0 0.938-0.297 1.109-0.859 0.109-0.328 0.141-0.844 0.141-1.563zM21.844 22.469v-0.203h-1.422c0 0.562-0.016 0.875-0.031 0.953-0.078 0.375-0.281 0.562-0.625 0.562-0.484 0-0.719-0.359-0.719-1.078v-1.359h2.797v-1.609c0-0.828-0.141-1.422-0.422-1.813-0.406-0.531-0.953-0.797-1.656-0.797-0.719 0-1.266 0.266-1.672 0.797-0.297 0.391-0.438 0.984-0.438 1.813v2.703c0 0.828 0.156 1.437 0.453 1.813 0.406 0.531 0.953 0.797 1.687 0.797s1.313-0.281 1.687-0.828c0.172-0.25 0.297-0.531 0.328-0.844 0.031-0.141 0.031-0.453 0.031-0.906zM12.344 8.203v-3.281c0-0.719-0.203-1.078-0.672-1.078-0.453 0-0.672 0.359-0.672 1.078v3.281c0 0.719 0.219 1.094 0.672 1.094 0.469 0 0.672-0.375 0.672-1.094zM23.578 19.938c0 1.797-0.016 3.719-0.406 5.469-0.297 1.234-1.297 2.141-2.5 2.266-2.875 0.328-5.781 0.328-8.672 0.328s-5.797 0-8.672-0.328c-1.203-0.125-2.219-1.031-2.5-2.266-0.406-1.75-0.406-3.672-0.406-5.469v0c0-1.813 0.016-3.719 0.406-5.469 0.297-1.234 1.297-2.141 2.516-2.281 2.859-0.313 5.766-0.313 8.656-0.313s5.797 0 8.672 0.313c1.203 0.141 2.219 1.047 2.5 2.281 0.406 1.75 0.406 3.656 0.406 5.469zM7.984 0h1.594l-1.891 6.234v4.234h-1.563v-4.234c-0.141-0.766-0.453-1.859-0.953-3.313-0.344-0.969-0.688-1.953-1.016-2.922h1.656l1.109 4.109zM13.766 5.203v2.734c0 0.828-0.141 1.453-0.438 1.844-0.391 0.531-0.938 0.797-1.656 0.797-0.703 0-1.25-0.266-1.641-0.797-0.297-0.406-0.438-1.016-0.438-1.844v-2.734c0-0.828 0.141-1.437 0.438-1.828 0.391-0.531 0.938-0.797 1.641-0.797 0.719 0 1.266 0.266 1.656 0.797 0.297 0.391 0.438 1 0.438 1.828zM19 2.672v7.797h-1.422v-0.859c-0.562 0.656-1.094 0.969-1.609 0.969-0.453 0-0.781-0.187-0.922-0.578-0.078-0.234-0.125-0.609-0.125-1.172v-6.156h1.422v5.734c0 0.328 0 0.516 0.016 0.547 0.031 0.219 0.141 0.344 0.328 0.344 0.281 0 0.578-0.219 0.891-0.672v-5.953h1.422z"></path>
</symbol>
<symbol id="icon-female" viewBox="0 0 20 28">
<title>female</title>
<path d="M20 16.5c0 0.828-0.672 1.5-1.5 1.5-0.5 0-0.969-0.25-1.25-0.672l-3.547-5.328h-0.703v2.063l3.859 6.422c0.094 0.156 0.141 0.328 0.141 0.516 0 0.547-0.453 1-1 1h-3v4.25c0 0.969-0.781 1.75-1.75 1.75h-2.5c-0.953 0-1.75-0.781-1.75-1.75v-4.25h-3c-0.547 0-1-0.453-1-1 0-0.187 0.047-0.359 0.141-0.516l3.859-6.422v-2.063h-0.703l-3.547 5.328c-0.281 0.422-0.75 0.672-1.25 0.672-0.828 0-1.5-0.672-1.5-1.5 0-0.297 0.094-0.594 0.25-0.828l4-6c0.625-0.922 1.594-1.672 2.75-1.672h6c1.156 0 2.125 0.75 2.75 1.672l4 6c0.156 0.234 0.25 0.531 0.25 0.828zM13.5 4c0 1.937-1.563 3.5-3.5 3.5s-3.5-1.563-3.5-3.5 1.563-3.5 3.5-3.5 3.5 1.563 3.5 3.5z"></path>
</symbol>
<symbol id="icon-male" viewBox="0 0 16 28">
<title>male</title>
<path d="M16 11v6.5c0 0.828-0.672 1.5-1.5 1.5s-1.5-0.672-1.5-1.5v-5.5h-1v14.25c0 0.969-0.781 1.75-1.75 1.75s-1.75-0.781-1.75-1.75v-7.25h-1v7.25c0 0.969-0.781 1.75-1.75 1.75s-1.75-0.781-1.75-1.75v-14.25h-1v5.5c0 0.828-0.672 1.5-1.5 1.5s-1.5-0.672-1.5-1.5v-6.5c0-1.656 1.344-3 3-3h10c1.656 0 3 1.344 3 3zM11.5 4c0 1.937-1.563 3.5-3.5 3.5s-3.5-1.563-3.5-3.5 1.563-3.5 3.5-3.5 3.5 1.563 3.5 3.5z"></path>
</symbol>
<symbol id="icon-history" viewBox="0 0 24 28">
<title>history</title>
<path d="M24 14c0 6.609-5.391 12-12 12-3.578 0-6.953-1.578-9.234-4.328-0.156-0.203-0.141-0.5 0.031-0.672l2.141-2.156c0.109-0.094 0.25-0.141 0.391-0.141 0.141 0.016 0.281 0.078 0.359 0.187 1.531 1.984 3.828 3.109 6.312 3.109 4.406 0 8-3.594 8-8s-3.594-8-8-8c-2.047 0-3.984 0.781-5.437 2.141l2.141 2.156c0.297 0.281 0.375 0.719 0.219 1.078-0.156 0.375-0.516 0.625-0.922 0.625h-7c-0.547 0-1-0.453-1-1v-7c0-0.406 0.25-0.766 0.625-0.922 0.359-0.156 0.797-0.078 1.078 0.219l2.031 2.016c2.203-2.078 5.187-3.313 8.266-3.313 6.609 0 12 5.391 12 12zM14 9.5v7c0 0.281-0.219 0.5-0.5 0.5h-5c-0.281 0-0.5-0.219-0.5-0.5v-1c0-0.281 0.219-0.5 0.5-0.5h3.5v-5.5c0-0.281 0.219-0.5 0.5-0.5h1c0.281 0 0.5 0.219 0.5 0.5z"></path>
</symbol>
<symbol id="icon-map" viewBox="0 0 28 28">
<title>map</title>
<path d="M8 0c0.266 0 0.5 0.234 0.5 0.5v23c0 0.187-0.109 0.359-0.266 0.438l-7.5 4c-0.078 0.047-0.156 0.063-0.234 0.063-0.266 0-0.5-0.234-0.5-0.5v-23c0-0.187 0.109-0.359 0.266-0.438l7.5-4c0.078-0.047 0.156-0.063 0.234-0.063zM27.5 0c0.266 0 0.5 0.234 0.5 0.5v23c0 0.187-0.109 0.359-0.266 0.438l-7.5 4c-0.078 0.047-0.156 0.063-0.234 0.063-0.266 0-0.5-0.234-0.5-0.5v-23c0-0.187 0.109-0.359 0.266-0.438l7.5-4c0.078-0.047 0.156-0.063 0.234-0.063zM10 0c0.078 0 0.156 0.016 0.219 0.047l8 4c0.172 0.094 0.281 0.266 0.281 0.453v23c0 0.266-0.234 0.5-0.5 0.5-0.078 0-0.156-0.016-0.219-0.047l-8-4c-0.172-0.094-0.281-0.266-0.281-0.453v-23c0-0.266 0.234-0.5 0.5-0.5z"></path>
</symbol>
<symbol id="icon-address-card" viewBox="0 0 32 28">
<title>address-card</title>
<path d="M16 17.672c0-2.422-0.594-5.109-3.063-5.109-0.766 0.438-1.797 1.188-2.938 1.188s-2.172-0.75-2.938-1.188c-2.469 0-3.063 2.688-3.063 5.109 0 1.359 0.891 2.328 2 2.328h8c1.109 0 2-0.969 2-2.328zM13.547 9.547c0-1.953-1.594-3.547-3.547-3.547s-3.547 1.594-3.547 3.547c0 1.969 1.594 3.547 3.547 3.547s3.547-1.578 3.547-3.547zM28 17.5v-1c0-0.281-0.219-0.5-0.5-0.5h-9c-0.281 0-0.5 0.219-0.5 0.5v1c0 0.281 0.219 0.5 0.5 0.5h9c0.281 0 0.5-0.219 0.5-0.5zM28 13.438v-0.875c0-0.313-0.25-0.562-0.562-0.562h-8.875c-0.313 0-0.562 0.25-0.562 0.562v0.875c0 0.313 0.25 0.562 0.562 0.562h8.875c0.313 0 0.562-0.25 0.562-0.562zM28 9.5v-1c0-0.281-0.219-0.5-0.5-0.5h-9c-0.281 0-0.5 0.219-0.5 0.5v1c0 0.281 0.219 0.5 0.5 0.5h9c0.281 0 0.5-0.219 0.5-0.5zM32 4.5v19c0 1.375-1.125 2.5-2.5 2.5h-5.5v-1.5c0-0.281-0.219-0.5-0.5-0.5h-1c-0.281 0-0.5 0.219-0.5 0.5v1.5h-12v-1.5c0-0.281-0.219-0.5-0.5-0.5h-1c-0.281 0-0.5 0.219-0.5 0.5v1.5h-5.5c-1.375 0-2.5-1.125-2.5-2.5v-19c0-1.375 1.125-2.5 2.5-2.5h27c1.375 0 2.5 1.125 2.5 2.5z"></path>
</symbol>
<symbol id="icon-user-circle" viewBox="0 0 28 28">
<title>user-circle</title>
<path d="M23.797 20.922c-0.406-2.922-1.594-5.516-4.25-5.875-1.375 1.5-3.359 2.453-5.547 2.453s-4.172-0.953-5.547-2.453c-2.656 0.359-3.844 2.953-4.25 5.875 2.172 3.063 5.75 5.078 9.797 5.078s7.625-2.016 9.797-5.078zM20 10c0-3.313-2.688-6-6-6s-6 2.688-6 6 2.688 6 6 6 6-2.688 6-6zM28 14c0 7.703-6.25 14-14 14-7.734 0-14-6.281-14-14 0-7.734 6.266-14 14-14s14 6.266 14 14z"></path>
</symbol>
</defs>
</svg>
